<?xml version="1.0" standalone="no"?>
<!DOCTYPE svg PUBLIC "-//W3C//DTD SVG 20010904//EN"
 "http://www.w3.org/TR/2001/REC-SVG-20010904/DTD/svg10.dtd">
<svg version="1.0" xmlns="http://www.w3.org/2000/svg"
 width="192.000000pt" height="192.000000pt" viewBox="0 0 192.000000 192.000000"
 preserveAspectRatio="xMidYMid meet">
<metadata>
Created by potrace 1.11, written by Peter Selinger 2001-2013
</metadata>
<g transform="translate(0.000000,192.000000) scale(0.100000,-0.100000)"
fill="#000000" stroke="none">
<path d="M0 960 l0 -960 960 0 960 0 0 960 0 960 -960 0 -960 0 0 -960z m618
588 c5 -7 19 -47 30 -88 18 -66 19 -77 6 -90 -25 -26 -47 1 -68 82 -11 41 -17
82 -13 91 8 20 30 22 45 5z m730 -18 c4 -38 -31 -152 -50 -164 -13 -8 -21 -7
-32 4 -13 13 -12 24 6 90 11 41 25 81 31 88 16 20 42 10 45 -18z m-26 -395
c192 -220 348 -407 348 -415 0 -9 -51 -90 -113 -180 l-113 -165 -493 0 -494 0
-113 165 c-63 91 -113 173 -112 183 2 9 160 197 351 418 282 323 353 400 370
397 14 -2 142 -142 369 -403z m-848 206 c47 -48 67 -74 63 -85 -15 -38 -38
-29 -108 40 -71 71 -77 82 -57 102 20 20 31 14 102 -57z m1080 47 c9 -15 0
-29 -59 -88 -71 -71 -89 -79 -109 -48 -9 15 0 29 59 88 71 71 89 79 109 48z
m-1225 -206 c71 -20 93 -41 72 -66 -8 -9 -21 -15 -30 -12 -124 33 -161 48
-161 65 0 37 24 40 119 13z m1379 -9 c3 -22 -21 -32 -159 -69 -23 -6 -46 23
-33 44 13 19 117 52 159 49 23 -2 31 -7 33 -24z"/>
<path d="M843 1060 l-102 -300 210 0 c116 0 209 4 207 9 -1 4 -48 139 -103
300 -55 160 -102 291 -105 291 -3 0 -51 -135 -107 -300z"/>
<path d="M601 1035 c-127 -146 -231 -267 -231 -270 0 -9 279 -5 284 4 9 14
185 531 181 531 -2 0 -108 -119 -234 -265z"/>
<path d="M1137 1082 c41 -119 83 -239 92 -267 l18 -50 141 -3 c78 -1 142 0
142 3 0 7 -447 522 -459 529 -5 3 25 -92 66 -212z"/>
<path d="M412 585 c35 -52 65 -95 68 -95 6 0 120 173 120 183 0 4 -56 7 -125
7 l-125 0 62 -95z"/>
<path d="M780 674 c0 -8 163 -194 171 -194 7 0 169 186 169 195 0 3 -76 5
-170 5 -93 0 -170 -3 -170 -6z"/>
<path d="M1300 674 c0 -9 114 -184 120 -184 4 0 29 36 113 162 l19 28 -126 0
c-69 0 -126 -3 -126 -6z"/>
<path d="M643 583 c-24 -37 -52 -83 -64 -100 l-21 -33 152 0 152 0 -50 58
c-27 31 -67 76 -88 100 l-39 43 -42 -68z"/>
<path d="M1131 555 c-46 -53 -81 -98 -79 -101 3 -2 69 -3 147 -2 l141 3 -63
98 -63 98 -83 -96z"/>
</g>
</svg>
