<?xml version="1.0" encoding="utf-8"?>
<!-- Generator: Adobe Illustrator 20.1.0, SVG Export Plug-In . SVG Version: 6.00 Build 0)  -->
<svg version="1.1" id="_x39_fe80830-a2f8-498a-ad06-50402ee1f109"
	 xmlns="http://www.w3.org/2000/svg" xmlns:xlink="http://www.w3.org/1999/xlink" x="0px" y="0px" viewBox="0 0 150 150"
	 style="enable-background:new 0 0 150 150;" xml:space="preserve">
<style type="text/css">
	.st0{fill:#00843D;}
</style>
<title>Artboard 1</title>
<g>
	<path class="st0" d="M136,95.7c0-0.1,0-0.1,0-0.2c0-0.1,0-0.2-0.1-0.3c0-0.1,0-0.1-0.1-0.2c0-0.1-0.1-0.2-0.1-0.2
		c0-0.1-0.1-0.1-0.1-0.2c0,0,0-0.1,0-0.1c0,0-0.1-0.1-0.1-0.1c0-0.1-0.1-0.1-0.1-0.2c-0.1-0.1-0.1-0.1-0.2-0.2c0,0-0.1-0.1-0.1-0.1
		L76.8,26.8l0,0l0-0.1c0,0,0,0,0,0c0-0.1-0.1-0.1-0.2-0.2l0,0c0,0,0,0-0.1-0.1c-0.1,0-0.1-0.1-0.2-0.1c0,0,0,0,0,0c0,0,0,0,0,0l0,0
		c-0.1-0.1-0.2-0.1-0.3-0.2c0,0,0,0-0.1,0c-0.1,0-0.2-0.1-0.2-0.1c0,0,0,0,0,0c0,0,0,0-0.1,0c-0.1,0-0.1-0.1-0.2-0.1c0,0,0,0,0,0
		c0,0,0,0,0,0l0,0c-0.1,0-0.1,0-0.2-0.1c0,0-0.1,0-0.1,0l-0.1,0c0,0,0,0-0.1,0c0,0-0.1,0-0.1,0c0,0,0,0-0.1,0c0,0-0.1,0-0.1,0
		l-0.1,0l0,0c0,0,0,0-0.1,0c-0.1,0-0.2,0-0.3,0l0,0c-0.1,0-0.2,0-0.3,0c0,0,0,0-0.1,0l0,0l-0.1,0c0,0-0.1,0-0.1,0c0,0,0,0-0.1,0
		c0,0-0.1,0-0.1,0c0,0,0,0-0.1,0l-0.1,0c0,0-0.1,0-0.1,0c-0.1,0-0.1,0-0.2,0l0,0c0,0,0,0,0,0c0,0,0,0,0,0c-0.1,0-0.1,0.1-0.2,0.1
		c0,0,0,0-0.1,0c0,0,0,0,0,0c-0.1,0-0.2,0.1-0.2,0.1c0,0,0,0-0.1,0c-0.1,0.1-0.2,0.1-0.3,0.2c0,0,0,0,0,0s0,0,0,0c0,0,0,0,0,0
		c-0.1,0-0.1,0.1-0.2,0.1c0,0,0,0-0.1,0.1c0,0,0,0,0,0c-0.1,0-0.1,0.1-0.2,0.2c0,0,0,0,0,0l0,0.1l0,0l-58.3,67
		C12.1,95,12,96.9,13,98.3l18,26.3c0,0,0,0,0,0l0,0c0,0,0,0,0,0c0.1,0.1,0.1,0.2,0.2,0.3c0,0,0,0.1,0.1,0.1c0.1,0.1,0.1,0.1,0.2,0.2
		c0,0,0.1,0.1,0.1,0.1c0.1,0.1,0.1,0.1,0.2,0.2c0,0,0.1,0.1,0.1,0.1c0,0,0,0,0,0c0.1,0,0.1,0.1,0.2,0.1c0,0,0.1,0,0.1,0
		c0.1,0.1,0.2,0.1,0.4,0.2c0,0,0,0,0.1,0c0.1,0,0.2,0.1,0.3,0.1c0,0,0.1,0,0.1,0c0.1,0,0.2,0,0.3,0.1c0,0,0.1,0,0.1,0
		c0.1,0,0.2,0,0.3,0c0,0,0,0,0.1,0h80.5c0,0,0,0,0.1,0c0.1,0,0.2,0,0.3,0c0,0,0.1,0,0.1,0c0.1,0,0.2,0,0.3-0.1c0,0,0.1,0,0.1,0
		c0.1,0,0.2-0.1,0.3-0.1c0,0,0,0,0.1,0c0.1,0,0.2-0.1,0.4-0.2c0,0,0.1,0,0.1,0c0.1,0,0.1-0.1,0.2-0.1c0,0,0,0,0,0
		c0,0,0.1-0.1,0.1-0.1c0.1-0.1,0.1-0.1,0.2-0.2c0,0,0.1-0.1,0.1-0.1c0.1-0.1,0.1-0.1,0.2-0.2c0,0,0-0.1,0.1-0.1
		c0.1-0.1,0.2-0.2,0.2-0.3c0,0,0,0,0,0l0,0l0,0l18.1-26.4c0,0,0,0,0,0c0-0.1,0.1-0.1,0.1-0.2c0-0.1,0.1-0.2,0.1-0.2c0,0,0,0,0-0.1
		c0,0,0-0.1,0.1-0.1c0-0.1,0.1-0.2,0.1-0.3c0-0.1,0-0.1,0.1-0.2c0-0.1,0-0.2,0.1-0.3c0-0.1,0-0.1,0-0.2c0-0.1,0-0.2,0-0.3
		c0-0.1,0-0.2,0-0.2C136,95.9,136,95.8,136,95.7z M124.9,92.6H99.7L83.3,44.8L124.9,92.6z M74.2,39.8l18.1,52.8H56L74.2,39.8z
		 M65.1,44.8L48.7,92.6H23.5L65.1,44.8z M33.9,116.3L22.4,99.6h22.3L33.9,116.3z M40.4,119.1l11.2-17.2l15,17.2H40.4z M58.8,99.6
		h30.7l-15.4,17.6L58.8,99.6z M81.8,119.1l15-17.2l11.2,17.2H81.8z M114.5,116.3l-10.9-16.7h22.3L114.5,116.3z"/>
	<path class="st0" d="M115.9,51.3l9.9-9.9c1-1,1.1-2.7,0-3.8c-1-1-2.7-1.1-3.8,0c0,0,0,0,0,0l-9.9,9.9c-1,1-1,2.7,0,3.8
		C113.2,52.4,114.8,52.4,115.9,51.3L115.9,51.3z"/>
	<path class="st0" d="M102.3,41.1c1.4,0.4,2.9-0.5,3.3-1.9c0,0,0,0,0,0l3.2-11.9c0.4-1.4-0.5-2.9-1.9-3.3c-1.4-0.4-2.9,0.5-3.3,1.9
		l-3.2,11.9C100.1,39.2,100.9,40.7,102.3,41.1C102.3,41.1,102.3,41.1,102.3,41.1L102.3,41.1z"/>
	<path class="st0" d="M139.4,56.5c-0.4-1.4-1.8-2.3-3.3-1.9l-11.9,3.2c-1.4,0.4-2.3,1.8-1.9,3.2s1.8,2.3,3.2,1.9c0,0,0,0,0.1,0
		l11.9-3.2C138.9,59.4,139.8,58,139.4,56.5z"/>
	<path class="st0" d="M34.1,51.3c1,1,2.7,1,3.8,0c1-1,1-2.7,0-3.8L28,37.7c-1-1-2.7-1.1-3.8,0c-1,1-1.1,2.7,0,3.8c0,0,0,0,0,0
		L34.1,51.3z"/>
	<path class="st0" d="M24.4,63c1.4,0.4,2.9-0.5,3.3-1.9c0.4-1.4-0.5-2.9-1.9-3.3l-11.9-3.2c-1.4-0.4-2.9,0.5-3.3,1.9
		c-0.4,1.4,0.5,2.9,1.9,3.3l0,0L24.4,63z"/>
	<path class="st0" d="M44.4,39.2c0.4,1.4,1.8,2.3,3.2,1.9s2.3-1.8,1.9-3.2c0,0,0,0,0-0.1l-3.2-11.9c-0.4-1.4-1.9-2.3-3.3-1.9
		c-1.4,0.4-2.2,1.8-1.9,3.2L44.4,39.2z"/>
</g>
</svg>
